<?xml version="1.0" encoding="UTF-8"?>
<svg id="Layer_1" xmlns="http://www.w3.org/2000/svg" version="1.1" viewBox="0 0 55.5 40.53">
  <!-- Generator: Adobe Illustrator 30.0.0, SVG Export Plug-In . SVG Version: 2.1.1 Build 123)  -->
  <defs>
    <style>
      .st0, .st1, .st2, .st3, .st4, .st5 {
        isolation: isolate;
      }

      .st0, .st4 {
        opacity: .7;
      }

      .st1, .st5 {
        opacity: .6;
      }

      .st2 {
        opacity: .5;
      }

      .st2, .st3 {
        display: none;
        stroke-width: .8px;
      }

      .st2, .st3, .st6, .st4, .st5, .st7, .st8 {
        fill: none;
      }

      .st2, .st4 {
        stroke: #555;
      }

      .st9, .st10, .st6, .st11, .st12 {
        stroke: #333;
      }

      .st9, .st11, .st7, .st12 {
        stroke-width: 1.5px;
      }

      .st9, .st12 {
        fill: silver;
      }

      .st10 {
        fill: #c6ff00;
        stroke-width: .25px;
      }

      .st3 {
        opacity: .4;
      }

      .st3, .st5 {
        stroke: #ededed;
      }

      .st6 {
        stroke-width: 5.5px;
      }

      .st6, .st7, .st8 {
        stroke-linecap: round;
      }

      .st4, .st5 {
        stroke-width: 1.2px;
      }

      .st11 {
        fill: #b0b0b0;
      }

      .st7 {
        stroke: #888;
      }

      .st12 {
        stroke-linejoin: round;
      }

      .st13 {
        fill: #ededed;
      }

      .st14 {
        fill: #555;
      }

      .st8 {
        stroke: silver;
        stroke-width: 3.5px;
      }
    </style>
  </defs>
  <rect class="st11" x="25.25" y=".75" width="5" height="36"/>
  <line class="st5" x1="25.25" y1=".75" x2="25.25" y2="36.75"/>
  <line class="st4" x1="30.25" y1=".75" x2="30.25" y2="36.75"/>
  <rect class="st9" x="15.75" y="34.75" width="24" height="5" rx="1" ry="1"/>
  <rect class="st10" x="45.24" y="11.68" width="7" height="4" rx=".5" ry=".5"/>
  <g class="st0">
    <path class="st13" d="M38.79,34.2c-7.26.86-14.73.85-21.99,0,0,0,0-.08,0-.08,5.43.04,16.71-.18,21.99.07h0Z"/>
  </g>
  <g class="st0">
    <path class="st14" d="M16.7,40.35c1.85-.4,3.71-.66,5.56-.8,1.85-.16,3.71-.21,5.56-.22,1.85.02,3.71.06,5.56.23,1.85.13,3.71.4,5.56.79v.12l-11.12.06-11.12-.06v-.12Z"/>
  </g>
  <line class="st6" x1="6.75" y1="6.75" x2="48.75" y2="2.75"/>
  <rect class="st10" x="3.28" y="15.7" width="7" height="4" rx=".5" ry=".5"/>
  <line class="st8" x1="6.75" y1="6.75" x2="48.75" y2="2.75"/>
  <g class="st1">
    <path class="st13" d="M48.75,1.1c-13.8,2.46-27.98,3.81-42,4-.06,0-.07-.1,0-.1,10.37-.93,31.93-3.28,42.01-3.9h0Z"/>
  </g>
  <g class="st1">
    <path class="st14" d="M6.75,8.38c13.8-2.46,27.98-3.81,42-4,.06,0,.07.1,0,.1-10.37.93-31.93,3.28-42.01,3.9h0Z"/>
  </g>
  <polygon class="st9" points="22.25 .75 33.25 .75 27.75 6.25 22.25 .75"/>
  <g class="st1">
    <path class="st14" d="M28.23,6.45c.54-1.3,1.37-2.3,2.27-3.23.93-.82,2.02-1.94,3.29-2.21-1.34,1.4-4.1,4.16-5.5,5.5,0,0-.06-.06-.06-.06h0Z"/>
  </g>
  <line class="st7" x1="6.75" y1="6.75" x2="10.75" y2="19.75"/>
  <line class="st7" x1="6.75" y1="6.75" x2="2.75" y2="19.75"/>
  <path class="st12" d="M.75,19.75h12l-2,4.5H2.75l-2-4.5Z"/>
  <line class="st7" x1="48.65" y1="3.67" x2="44.75" y2="15.75"/>
  <line class="st7" x1="48.71" y1="3.27" x2="52.75" y2="15.75"/>
  <path class="st12" d="M42.75,15.75h12l-2,4.5h-8l-2-4.5Z"/>
  <g class="st1">
    <path class="st14" d="M44.75,20.79c1.89-.93,3.97-1,6-.66.67.13,1.33.31,2,.66v.1c-1.99.05-6.01.05-8,0,0,0,0-.1,0-.1h0Z"/>
  </g>
  <line class="st3" x1="42.75" y1="15.75" x2="44.75" y2="20.25"/>
  <line class="st2" x1="54.75" y1="15.75" x2="52.75" y2="20.25"/>
  <g class="st1">
    <path class="st14" d="M2.75,24.87c1.89-.93,3.97-1,6-.66.67.13,1.33.31,2,.66v.1c-1.99.05-6.01.05-8,0,0,0,0-.1,0-.1h0Z"/>
  </g>
</svg>