<?xml version="1.0" encoding="UTF-8"?>
<svg id="Layer_1" xmlns="http://www.w3.org/2000/svg" version="1.1" viewBox="0 0 53.68 51">
  <!-- Generator: Adobe Illustrator 30.0.0, SVG Export Plug-In . SVG Version: 2.1.1 Build 123)  -->
  <defs>
    <style>
      .st0 {
        opacity: .35;
        stroke-width: 1.5px;
      }

      .st0, .st1 {
        stroke: #c6ff00;
      }

      .st0, .st1, .st2 {
        fill: none;
      }

      .st0, .st1, .st2, .st3, .st4, .st5 {
        display: none;
      }

      .st0, .st1, .st2, .st4 {
        isolation: isolate;
      }

      .st6 {
        fill: #bae505;
      }

      .st6, .st7, .st8, .st3, .st9 {
        stroke: #b0b0b0;
      }

      .st6, .st9 {
        stroke-width: .75px;
      }

      .st7, .st3, .st10 {
        stroke-width: 2px;
      }

      .st7, .st4 {
        fill: #c6ff00;
      }

      .st1 {
        opacity: .55;
        stroke-width: 2.5px;
      }

      .st2 {
        opacity: .3;
        stroke: #ddd;
        stroke-linecap: round;
      }

      .st8 {
        stroke-width: 3px;
      }

      .st8, .st3 {
        fill: #353539;
      }

      .st9 {
        fill: #c1ef00;
      }

      .st4 {
        opacity: .18;
      }

      .st5 {
        fill: #222;
        stroke: #777;
        stroke-width: 1.2px;
      }

      .st10 {
        fill: #3c3c42;
        stroke: #888;
      }
    </style>
  </defs>
  <ellipse class="st10" cx="34.68" cy="25.5" rx="18" ry="23.76"/>
  <ellipse class="st6" cx="30.13" cy="25.37" rx="18.47" ry="22.58"/>
  <ellipse class="st9" cx="27.45" cy="25.37" rx="18.47" ry="22.58"/>
  <ellipse class="st8" cx="21.5" cy="25.5" rx="20" ry="24"/>
  <g>
    <line class="st8" x1="21.5" y1="18.63" x2="21.5" y2="1.63"/>
    <line class="st8" x1="27.5" y1="21.63" x2="36.5" y2="10.63"/>
    <line class="st8" x1="27.5" y1="29.63" x2="36.5" y2="40.63"/>
    <line class="st8" x1="21.5" y1="32.63" x2="21.5" y2="49.63"/>
    <line class="st8" x1="15.5" y1="29.63" x2="6.5" y2="40.63"/>
    <line class="st8" x1="15.5" y1="21.63" x2="6.5" y2="10.63"/>
  </g>
  <ellipse class="st4" cx="21.5" cy="25.63" rx="14" ry="17"/>
  <ellipse class="st7" cx="21.5" cy="25.63" rx="9" ry="11"/>
  <ellipse class="st1" cx="21.5" cy="25.63" rx="14" ry="17"/>
  <ellipse class="st0" cx="21.5" cy="25.63" rx="9" ry="11"/>
  <ellipse class="st3" cx="21.5" cy="25.63" rx="6" ry="7"/>
  <ellipse class="st5" cx="21.5" cy="25.63" rx="3.5" ry="4.2"/>
  <path class="st2" d="M21.5,1.63C10.45,1.63,1.5,12.37,1.5,25.63"/>
</svg>