<?xml version="1.0" encoding="UTF-8"?>
<svg id="Layer_1" xmlns="http://www.w3.org/2000/svg" version="1.1" viewBox="0 0 29.5 51.5">
  <!-- Generator: Adobe Illustrator 30.0.0, SVG Export Plug-In . SVG Version: 2.1.1 Build 123)  -->
  <defs>
    <style>
      .st0, .st1, .st2 {
        fill: #c6ff00;
      }

      .st3 {
        opacity: .7;
      }

      .st3, .st4, .st5, .st6, .st7, .st1, .st2 {
        isolation: isolate;
      }

      .st4 {
        opacity: .5;
      }

      .st5 {
        opacity: .65;
      }

      .st6 {
        opacity: .6;
      }

      .st7 {
        opacity: .84;
      }

      .st8 {
        fill: #dbff66;
      }

      .st9 {
        fill: silver;
        stroke-width: 1.5px;
      }

      .st9, .st1, .st10 {
        stroke: #333;
      }

      .st1 {
        opacity: .75;
        stroke-width: .5px;
      }

      .st11 {
        fill: #9acd32;
      }

      .st12 {
        stroke: #b0b0b0;
        stroke-width: 2px;
      }

      .st12, .st10 {
        fill: none;
        stroke-linejoin: round;
      }

      .st2 {
        opacity: .72;
      }

      .st13 {
        opacity: .77;
      }

      .st10 {
        stroke-width: 3.5px;
      }

      .st14 {
        fill: #ededed;
      }

      .st15 {
        fill: #555;
      }
    </style>
  </defs>
  <rect class="st9" x=".75" y=".75" width="28" height="5" rx="1.5" ry="1.5"/>
  <g class="st3">
    <path class="st14" d="M27.7.29c-7.36.53-14.91.51-22.28.21,0,0-3.18-.21-3.18-.21-.1-.09,25.56-.09,25.46,0h0Z"/>
  </g>
  <rect class="st9" x=".75" y="45.75" width="28" height="5" rx="1.5" ry="1.5"/>
  <g class="st3">
    <path class="st15" d="M2.48,51.27c4.12-.67,8.25-.83,12.37-.85,2.06.02,4.12.04,6.19.2l3.09.24c1.03.14,2.06.22,3.09.41v.1l-12.37.05-12.37-.05v-.1Z"/>
  </g>
  <path class="st10" d="M3.75,5.75v14c0,3,8,4.5,8.5,6-.5,1.5-8.5,3-8.5,6v14h22v-14c0-3-8-4.5-8.5-6,.5-1.5,8.5-3,8.5-6V5.75H3.75Z"/>
  <path class="st1" d="M5.38,44.15v-11.47c0-2.74,6.8-4.05,7.84-5.42h3.14c1.05,1.37,7.84,2.63,7.84,5.37v11.52H5.38Z"/>
  <path class="st12" d="M3.75,5.75v14c0,3,8,4.5,8.5,6-.5,1.5-8.5,3-8.5,6v14h22v-14c0-3-8-4.5-8.5-6,.5-1.5,8.5-3,8.5-6V5.75H3.75Z"/>
  <g class="st6">
    <path class="st14" d="M3.08,7.75c1.13,2.63,1.2,5.47.79,8.25-.15.92-.37,1.83-.79,2.75h-.12c-.06-2.74-.06-8.26,0-11,0,0,.12,0,.12,0h0Z"/>
  </g>
  <g class="st6">
    <path class="st14" d="M3.08,32.75c1.13,2.63,1.2,5.47.79,8.25-.15.92-.37,1.83-.79,2.75h-.12c-.06-2.74-.06-8.26,0-11,0,0,.12,0,.12,0h0Z"/>
  </g>
  <g class="st5">
    <path class="st15" d="M26.52,18.75c-1.13-2.63-1.2-5.47-.79-8.25.15-.92.37-1.83.79-2.75h.12c.06,2.74.06,8.26,0,11,0,0-.12,0-.12,0h0Z"/>
  </g>
  <g class="st5">
    <path class="st15" d="M26.52,43.75c-1.13-2.63-1.2-5.47-.79-8.25.15-.92.37-1.83.79-2.75h.12c.06,2.74.06,8.26,0,11,0,0-.12,0-.12,0h0Z"/>
  </g>
  <g class="st4">
    <path class="st8" d="M16.41,27.66c2.12,2.01,6.3,1.5,7.53,4.52-1.51-1.54-3.78-2.25-5.74-3.2-.59-.34-1.55-.71-1.79-1.32h0Z"/>
  </g>
  <g class="st4">
    <path class="st8" d="M5.52,32.17c.6-1.46,2.2-2.16,3.52-2.84,1.31-.78,2.71-1.05,4.06-1.69,0,0,.08.06.08.06-.3.8-1.07,1.26-1.72,1.62-1.93.95-4.52,1.01-5.86,2.89,0,0-.09-.04-.09-.04h0Z"/>
  </g>
  <path class="st2" d="M5.47,7.25h18.54v7.86l-9.24,3.43-9.3-3.43v-7.86Z"/>
  <g class="st7">
    <path class="st11" d="M5.75,15.09c5.93-.8,12.07-.79,18,0,0,0,0,.07,0,.07-4.44-.04-13.7.17-18-.07h0Z"/>
  </g>
  <g class="st13">
    <path class="st0" d="M14.59,25.98c-.59-1.31-1.05-2.65-1.4-4.02-.17-.67-.7-1.34-.4-2.01.34-.86.87-1.45,1.8-2.01,0,0,.4,0,.4,0,.57.33.93.67,1.21,1,.29.33.47.67.59,1,.3.67-.23,1.34-.4,2.01-.35,1.37-.81,2.71-1.4,4.02,0,0-.4,0-.4,0h0Z"/>
  </g>
</svg>