<?xml version="1.0" encoding="UTF-8"?>
<svg id="Layer_1" xmlns="http://www.w3.org/2000/svg" version="1.1" viewBox="0 0 45.5 47.5">
  <!-- Generator: Adobe Illustrator 30.0.0, SVG Export Plug-In . SVG Version: 2.1.1 Build 123)  -->
  <defs>
    <style>
      .st0, .st1, .st2, .st3 {
        isolation: isolate;
      }

      .st0, .st2 {
        opacity: .7;
      }

      .st1 {
        opacity: .5;
      }

      .st4 {
        fill: silver;
      }

      .st4, .st5, .st6, .st7, .st8, .st9 {
        stroke: #333;
      }

      .st4, .st8 {
        stroke-width: 1.5px;
      }

      .st10, .st8 {
        fill: #b0b0b0;
      }

      .st5, .st11 {
        fill: #888;
      }

      .st2 {
        stroke: #555;
      }

      .st2, .st6, .st3 {
        fill: none;
      }

      .st2, .st3, .st7 {
        stroke-width: 1.2px;
      }

      .st6 {
        stroke-width: .8px;
      }

      .st3 {
        opacity: .6;
        stroke: #ededed;
      }

      .st7 {
        fill: #a8a8a8;
      }

      .st9, .st12 {
        fill: #555;
      }

      .st13 {
        fill: #ededed;
      }
    </style>
  </defs>
  <rect class="st8" x=".75" y="34.75" width="44" height="12" rx="1" ry="1"/>
  <g class="st1">
    <path class="st13" d="M1.2,45.78c-.35-.85-.54-1.69-.66-2.54-.14-.85-.17-1.69-.19-2.54.02-.85.05-1.69.19-2.54.13-.85.31-1.69.66-2.54h.1l.05,5.08-.05,5.08h-.1Z"/>
  </g>
  <rect class="st9" x="5.75" y="36.75" width="34" height="5"/>
  <line class="st6" x1="5.75" y1="36.75" x2="39.75" y2="36.75"/>
  <g class="st1">
    <path class="st11" d="M5.75,42.02c11.26-.92,22.74-.91,34,0,0,0,0,.08,0,.08-8.42-.04-25.74.19-34-.08h0Z"/>
  </g>
  <rect class="st4" x="2.75" y="2.75" width="7" height="32"/>
  <line class="st3" x1="2.75" y1="2.75" x2="2.75" y2="34"/>
  <line class="st2" x1="9.75" y1="2.75" x2="9.75" y2="34.01"/>
  <rect class="st4" x="35.75" y="2.75" width="7" height="32"/>
  <line class="st3" x1="35.75" y1="2.75" x2="35.75" y2="33.99"/>
  <line class="st2" x1="42.75" y1="6.39" x2="42.75" y2="34.08"/>
  <rect class="st4" x="2.75" y=".75" width="40" height="5"/>
  <rect class="st5" x="8.75" y="9.75" width="28" height="3"/>
  <path class="st12" d="M36.3,12.31c-1.13.13-2.25.19-3.38.29l-3.38.17c-2.25.09-4.51.09-6.76.14-2.25-.05-4.51-.04-6.76-.14l-3.38-.17c-1.13-.1-2.25-.16-3.38-.29v-.07l13.52-.03,13.52.03v.07Z"/>
  <g class="st1">
    <path class="st10" d="M36.73,9.38c-6.4.2-14.57.24-21,.14-1.74,0-5.26-.07-7-.14-.05-.05,28.05-.05,28,0h0Z"/>
  </g>
  <rect class="st4" x="15.75" y="12.75" width="14" height="10" rx="1" ry="1"/>
  <g class="st0">
    <path class="st13" d="M29.15,12.27c-4.19.53-8.65.66-12.74-.05,4.21.02,8.63-.12,12.74.05h0Z"/>
  </g>
  <line class="st2" x1="15.75" y1="22.75" x2="29.75" y2="22.75"/>
  <rect class="st7" x="18.75" y="22.75" width="8" height="4.5" rx=".5" ry=".5"/>
  <path class="st5" d="M20.75,27.25l1,3h2l1-3h-4Z"/>
</svg>