<?xml version="1.0" encoding="UTF-8"?>
<svg id="Layer_1" xmlns="http://www.w3.org/2000/svg" version="1.1" viewBox="0 0 45.5 41.5">
  <!-- Generator: Adobe Illustrator 30.0.0, SVG Export Plug-In . SVG Version: 2.1.1 Build 123)  -->
  <defs>
    <style>
      .st0, .st1, .st2, .st3, .st4, .st5, .st6, .st7, .st8, .st9, .st10 {
        stroke-linecap: round;
        stroke-linejoin: round;
      }

      .st0, .st1, .st2, .st4, .st5, .st7, .st8, .st9, .st10 {
        isolation: isolate;
      }

      .st0, .st1, .st2, .st4, .st5, .st8, .st10 {
        fill: none;
      }

      .st0, .st1, .st2, .st8, .st10 {
        stroke-width: 1.2px;
      }

      .st0, .st1, .st2, .st9 {
        opacity: .5;
      }

      .st0, .st4, .st10 {
        stroke: #dbff66;
      }

      .st1 {
        stroke: #ededed;
      }

      .st2, .st5 {
        stroke: #9acd32;
      }

      .st3 {
        fill: #a8a8a8;
      }

      .st3, .st4, .st5, .st6, .st7, .st9 {
        stroke-width: 1.5px;
      }

      .st3, .st6, .st7, .st9 {
        stroke: #333;
      }

      .st4, .st8 {
        opacity: .6;
      }

      .st5 {
        opacity: .55;
      }

      .st6, .st7, .st9 {
        fill: #c6ff00;
      }

      .st7 {
        opacity: .7;
      }

      .st8 {
        stroke: #555;
      }

      .st10 {
        opacity: .45;
      }
    </style>
  </defs>
  <path class="st3" d="M.75,32.75l22,8,22-8-22-8L.75,32.75Z"/>
  <path class="st1" d="M.75,32.75l22-8,22,8"/>
  <path class="st8" d="M44.75,32.75l-22,8L.75,32.75"/>
  <g>
    <path class="st9" d="M2.75,28.75l20,8,20-8-20-8L2.75,28.75Z"/>
    <path class="st10" d="M2.75,28.75l20-8,20,8"/>
    <path class="st2" d="M42.75,28.75l-20,8L2.75,28.75"/>
  </g>
  <g>
    <path class="st7" d="M2.75,18.75l20,8,20-8-20-8L2.75,18.75Z"/>
    <path class="st0" d="M2.75,18.75l20-8,20,8"/>
    <path class="st2" d="M42.75,18.75l-20,8L2.75,18.75"/>
  </g>
  <g>
    <path class="st6" d="M2.75,8.75l20,8,20-8L22.75.75,2.75,8.75Z"/>
    <path class="st4" d="M2.75,8.75L22.75.75l20,8"/>
    <path class="st5" d="M42.75,8.75l-20,8L2.75,8.75"/>
  </g>
</svg>