<?xml version='1.0' encoding='utf-8'?>
<svg xmlns="http://www.w3.org/2000/svg" id="Layer_1" version="1.1" viewBox="0 0 1024 1024">
  
  <defs>
    <style>
      .st0, .st1 {
        fill: none;
      }

      .st2 {
        fill: url(#linear-gradient1);
        stroke: #dbff66;
      }

      .st2, .st3, .st4, .st5, .st6 {
        stroke-miterlimit: 10;
      }

      .st2, .st4 {
        stroke-width: 3px;
      }

      .st7 {
        fill: url(#linear-gradient2);
      }

      .st3 {
        fill: #c6ff00;
        stroke: url(#linear-gradient3);
      }

      .st3, .st6 {
        stroke-width: .5px;
      }

      .st4 {
        fill: url(#linear-gradient5);
        stroke: #999;
      }

      .st8 {
        clip-path: url(#clippath-1);
      }

      .st9 {
        fill: #141414;
      }

      .st10 {
        opacity: .39;
      }

      .st1 {
        stroke: #c6ff00;
        stroke-linejoin: round;
        stroke-width: 5px;
      }

      .st11 {
        fill: #383838;
      }

      .st5 {
        fill: url(#linear-gradient);
        stroke: #9acd32;
      }

      .st12 {
        clip-path: url(#clippath);
      }

      .st6 {
        fill: url(#linear-gradient4);
        stroke: #00685b;
      }
    </style>
    <clipPath id="clippath">
      <rect class="st0" x="32" y="32" width="960" height="960" rx="200" ry="200" />
    </clipPath>
    <clipPath id="clippath-1">
      <rect class="st0" x="32" y="32" width="960" height="960" rx="200" ry="200" />
    </clipPath>
    <linearGradient id="linear-gradient" x1="404.32" y1="930.8" x2="619.68" y2="557.78" gradientUnits="userSpaceOnUse">
      <stop offset="0" stop-color="#2d1f3d" />
      <stop offset="1" stop-color="#000" />
    </linearGradient>
    <linearGradient id="linear-gradient1" x1="512" y1="782.3" x2="512" y2="516.26" gradientUnits="userSpaceOnUse">
      <stop offset="0" stop-color="#362b50" />
      <stop offset="1" stop-color="#000" />
    </linearGradient>
    <linearGradient id="linear-gradient2" x1="512" y1="427.59" x2="512" y2="687.29" gradientUnits="userSpaceOnUse">
      <stop offset=".04" stop-color="#000" />
      <stop offset="1" stop-color="#a368c8" />
    </linearGradient>
    <linearGradient id="linear-gradient3" x1="310.82" y1="655.78" x2="921.12" y2="655.78" gradientUnits="userSpaceOnUse">
      <stop offset="0" stop-color="#dedede" />
      <stop offset=".4" stop-color="silver" />
      <stop offset=".7" stop-color="#a8a8a8" />
      <stop offset="1" stop-color="#8a8a8a" />
    </linearGradient>
    <linearGradient id="linear-gradient4" x1="511.98" y1="550.35" x2="511.98" y2="1297.48" gradientTransform="translate(0 -414)" gradientUnits="userSpaceOnUse">
      <stop offset="0" stop-color="#dedede" />
      <stop offset=".03" stop-color="#d0cddc" />
      <stop offset=".4" stop-color="silver" />
      <stop offset=".7" stop-color="#a8a8a8" />
      <stop offset="1" stop-color="#8a8aa7" />
    </linearGradient>
    <linearGradient id="linear-gradient5" x1="389.09" y1="426.69" x2="754.5" y2="733.31" gradientUnits="userSpaceOnUse">
      <stop offset="0" stop-color="#c1c1c3" />
      <stop offset="1" stop-color="#9797a7" />
    </linearGradient>
  </defs>
  <path class="st5" d="M81.28,744.29l430.72,133.02,430.72-133.02-430.72-133.02-430.72,133.02h0Z" />
  <path class="st2" d="M81.28,649.28l430.72,133.02,430.72-133.02-430.72-133.02-430.72,133.02h0Z" />
  <path class="st7" d="M81.28,554.27l430.72,133.02,430.72-133.02-430.72-126.68-430.72,126.68h0Z" />
  <path class="st1" d="M81.28,554.27l430.72,133.02,430.72-133.02-430.72-126.68-430.72,126.68h0Z" />
  <g>
    <g id="Layer_3">
      <path class="st3" d="M532.04,476.48c32.32,24.36,77.81,60.44,136.48,108.2,118.17,96.29,169.71,137.02,196.68,155.38,21.51,14.65,40.62,33.49,46.56,45.73,10.28,20.93,12.04,46.04,4.34,62.63-5.29,11.75-19.11,26.08-30.18,31.71-25.69,13.21-55.87,8.86-82.52-11.75-10.6-8.21-41.43-35.74-68.88-61.51-53.15-49.91-150.28-136.7-208.89-186.77-46.24-39.29-192.16-175.48-214.64-196.25M841.11,793.5c-10.6,5.79-16.86,16.59-16.7,28.98.16,7.73.97,10.63,4.82,16.26,9.47,13.36,23.29,18.36,36.77,13.36,15.73-6.12,22.48-16.26,21.35-32.69-.65-11.11-3.21-15.61-13.17-23.66-8.35-6.93-22.64-7.73-33.08-2.26h.01Z" />
    </g>
    <g id="Layer_31" data-name="Layer_3">
      <path class="st6" d="M260.8,139.7c21.65,5.57,40.76,17.67,56.52,36.14,14.49,16.88,22.29,34.71,35.03,79.76,16.4,58.43,25,75.15,58.91,114.31,26.59,30.73,53.33,53.97,124.02,106.99,32.05,24.09,77.16,59.76,135.33,106.99,117.18,95.21,168.28,135.49,195.03,153.64,21.33,14.49,40.28,33.12,46.17,45.22,10.19,20.7,11.94,45.53,4.3,61.93-5.25,11.62-18.95,25.79-29.93,31.36-25.47,13.06-55.4,8.76-81.83-11.62-10.51-8.12-41.08-35.34-68.3-60.82-52.7-49.35-149.02-135.17-207.13-184.68-45.85-38.85-116.22-100.46-138.51-121-33.43-30.89-51.26-44.26-73.71-55.56-18.79-9.39-27.7-11.14-53.65-9.71-25.31,1.11-30.57,0-48.24-11.3-11.3-7.32-32.16-24.68-32.16-26.91,0-.8,8.6-24.2,19.26-51.74,10.51-27.54,21.02-54.93,23.24-60.82l3.98-10.67-6.53-27.54c-3.66-15.12-7.32-30.09-8.12-33.27-1.59-5.57-1.75-5.73-26.59-14.97-52.86-19.58-49.83-18.15-49.83-23.09,0-7.48,5.25-11.94,23.4-19.58,37.73-15.92,71.01-20.22,99.35-13.06h0ZM196.97,429.33c-3.65-1.63-8.23-3.73-10.79-4.79-8.12-3.34-12.5-7.7-12.18-9.93,3.98-26.27.19-23.51-21.78-48.35-20.38-22.93-36.3-46.65-42.83-63.52-5.57-14.33-7.96-30.41-4.94-32.32.96-.64,21.17,4.3,44.9,10.83l43.3,12.1,15.28-13.53c8.44-7.32,15.76-13.37,16.56-13.53.64,0,1.11,1.27,1.11,2.71,0,2.39-43.15,117.18-46.33,123.39-1.11,2.07.96,4.78,9.71,12.9,6.21,5.73,15.28,13.06,20.38,16.4l6.19,3.88c1.5.94-5.71,6.64-11.85,6.64l-6.74-2.85v-.03h0ZM264.78,311.17c-4.78,4.14-21.65,46.01-21.65,53.65,0,2.39,1.27,5.57,2.87,7.01,3.98,3.66,46.01,23.4,49.67,23.4,6.37,0,10.99-7.01,19.9-29.77,4.78-12.42,8.76-23.56,8.76-24.68,0-4.94-6.05-9.55-25.95-20.06-26.11-13.85-28.02-14.49-33.59-9.55h-.01ZM292.8,321.36c8.92,4.78,17.67,9.07,19.1,9.55,2.23.64,2.39,1.43.96,4.62s-1.27,4.62,1.11,7.16c3.66,3.98,2.07,7.64-3.5,8.28-5.89.64-8.76,7.8-4.78,12.1s3.34,6.37-2.39,7.96c-7.64,1.91-9.55,8.44-4.46,13.85,3.34,3.5,3.5,4.46,1.59,5.57-1.27.8-3.34,1.59-4.46,1.59-3.66,0-50.93-22.53-48.23-23.01,1.43-.32,9.22-.08,10.65-2.78,2.39-4.46-.21-7.38-3.24-10.72-1.91-1.91-3.34-4.3-3.34-5.25,0-1.91,3.66-3.66,7.8-3.66,1.59,0,6.1.53,7.22-1.7,1.59-3.66-1.54-7.75-4.4-10.77-4.46-4.78-3.98-6.85,2.23-7.96,7.48-1.43,13.32-4.83,8.7-9.77-3.34-3.5-2.87-6.05.8-4.62,1.11.48,9.55,4.78,18.63,9.55h0ZM271.3,321.84h0M841.75,790.38c-10.51,5.73-16.72,16.4-16.56,28.66.16,7.64.96,10.51,4.78,16.08,9.39,13.21,23.09,18.15,36.46,13.21,15.6-6.05,22.29-16.08,21.17-32.32-.64-10.99-3.18-15.44-13.06-23.4-8.28-6.85-22.45-7.64-32.8-2.23h0Z" />
    </g>
    <g id="uuid-076b3331-a59f-46a9-9de2-29107302d4aa" data-name="Layer_31">
      <path class="st4" d="M496.21,542.54l207.81,184.09s23.15,32.19,48.56,8.47-6.78-46.31-6.78-46.31l-219.11-174.49-105.04-84.71s-21.74-17.22-30.64-5.15c-8.3,11.25-10.86,19.55,2.41,31.12s102.78,86.96,102.78,86.96v.02Z" />
    </g>
  </g>
</svg>