<?xml version="1.0" encoding="UTF-8"?>
<svg xmlns="http://www.w3.org/2000/svg" xmlns:xlink="http://www.w3.org/1999/xlink" version="1.1" viewBox="0 0 882.14 782.68">
  <!-- Generator: Adobe Illustrator 30.0.0, SVG Export Plug-In . SVG Version: 2.1.1 Build 123)  -->
  <defs>
    <style>
      .st0 {
        fill: url(#linear-gradient1);
        stroke: #dbff66;
      }

      .st0, .st1, .st2, .st3 {
        stroke-miterlimit: 10;
      }

      .st0, .st2 {
        stroke-width: 3px;
      }

      .st4 {
        fill: #afafbc;
      }

      .st5 {
        fill: url(#linear-gradient2);
      }

      .st6 {
        fill: url(#linear-gradient4);
      }

      .st1 {
        fill: #c6ff00;
        stroke: #ccc;
        stroke-width: 4px;
      }

      .st2 {
        fill: url(#linear-gradient3);
        stroke: #000;
      }

      .st7 {
        fill: url(#radial-gradient);
      }

      .st8 {
        fill: #c1c1c1;
      }

      .st9 {
        fill: #b7b7b7;
      }

      .st10 {
        fill: none;
        stroke: #c6ff00;
        stroke-linejoin: round;
        stroke-width: 5px;
      }

      .st3 {
        fill: url(#linear-gradient);
        stroke: #9acd32;
      }
    </style>
    <radialGradient id="radial-gradient" cx="441.07" cy="362.2" fx="441.07" fy="362.2" r="441.07" gradientTransform="translate(0 712.71) scale(1 -.89)" gradientUnits="userSpaceOnUse">
      <stop offset="0" stop-color="#4d315f" stop-opacity=".5"/>
      <stop offset=".62" stop-color="#8655a4" stop-opacity=".1"/>
      <stop offset=".96" stop-color="#fff" stop-opacity=".1"/>
    </radialGradient>
    <linearGradient id="linear-gradient" x1="333.39" y1="1366.03" x2="548.75" y2="993.01" gradientTransform="translate(0 -555.86)" gradientUnits="userSpaceOnUse">
      <stop offset="0" stop-color="#2d1f3d"/>
      <stop offset="1" stop-color="#854691"/>
    </linearGradient>
    <linearGradient id="linear-gradient1" x1="441.07" y1="1217.53" x2="441.07" y2="951.49" gradientTransform="translate(0 -555.86)" gradientUnits="userSpaceOnUse">
      <stop offset="0" stop-color="#362b50"/>
      <stop offset="0" stop-color="#915292"/>
      <stop offset="1" stop-color="#412e56"/>
    </linearGradient>
    <linearGradient id="linear-gradient2" x1="441.07" y1="862.82" x2="441.07" y2="1122.52" gradientTransform="translate(0 -555.86)" gradientUnits="userSpaceOnUse">
      <stop offset=".04" stop-color="#612e5a"/>
      <stop offset="1" stop-color="#d668c8"/>
    </linearGradient>
    <linearGradient id="linear-gradient3" x1="441.06" y1="985.58" x2="441.06" y2="1732.7" gradientTransform="translate(0 -969.86)" gradientUnits="userSpaceOnUse">
      <stop offset="0" stop-color="#dedede"/>
      <stop offset=".03" stop-color="#d0cddc"/>
      <stop offset=".4" stop-color="silver"/>
      <stop offset=".7" stop-color="#a8a8a8"/>
      <stop offset="1" stop-color="#8a8aa7"/>
    </linearGradient>
    <linearGradient id="linear-gradient4" x1="318.16" y1="861.92" x2="683.57" y2="1168.54" gradientTransform="translate(9.89 -560.68) rotate(.56)" gradientUnits="userSpaceOnUse">
      <stop offset="0" stop-color="#b8b8b8"/>
      <stop offset="1" stop-color="#9c9ca8"/>
    </linearGradient>
  </defs>
  <g id="Layer_1">
    <g id="Layer_2">
      <ellipse class="st7" cx="441.07" cy="391.34" rx="441.07" ry="391.34"/>
    </g>
    <path class="st3" d="M10.35,623.66l430.72,133.02,430.72-133.02-430.72-133.02L10.35,623.66h0Z"/>
    <path class="st0" d="M10.35,528.65l430.72,133.02,430.72-133.02-430.72-133.02L10.35,528.65h0Z"/>
    <path class="st5" d="M10.35,433.64l430.72,133.02,430.72-133.02-430.72-126.68L10.35,433.64h0Z"/>
    <path class="st10" d="M10.35,433.64l430.72,133.02,430.72-133.02-430.72-126.68L10.35,433.64h0Z"/>
    <g id="Layer_3">
      <path class="st1" d="M463.49,356.21c32.13,24.61,77.34,61.03,135.65,109.24,117.43,97.19,168.66,138.32,195.48,156.88,21.4,14.81,40.36,33.8,46.21,46.09,10.12,21.01,11.69,46.13,3.86,62.66-5.38,11.71-19.31,25.93-30.42,31.48-25.79,13.01-55.94,8.43-82.43-12.38-10.54-8.29-41.16-36.06-68.41-62.04-52.77-50.32-149.23-137.85-207.45-188.36-45.94-39.64-190.81-176.95-213.13-197.89M770.12,675.59c-10.64,5.71-16.99,16.46-16.92,28.85.1,7.73.89,10.64,4.7,16.3,9.37,13.43,23.15,18.54,36.67,13.64,15.78-6,22.6-16.09,21.6-32.53-.56-11.11-3.09-15.63-12.99-23.76-8.3-6.99-22.58-7.9-33.06-2.51h.01s0,.01,0,.01Z"/>
    </g>
    <g id="Layer_31">
      <path class="st2" d="M189.87,19.07c21.65,5.57,40.76,17.67,56.52,36.14,14.49,16.88,22.29,34.71,35.03,79.76,16.4,58.43,25,75.15,58.91,114.31,26.59,30.73,53.33,53.97,124.02,106.99,32.05,24.09,77.16,59.76,135.33,106.99,117.18,95.21,168.28,135.49,195.03,153.64,21.33,14.49,40.28,33.12,46.17,45.22,10.19,20.7,11.94,45.53,4.3,61.93-5.25,11.62-18.95,25.79-29.93,31.36-25.47,13.06-55.4,8.76-81.83-11.62-10.51-8.12-41.08-35.34-68.3-60.82-52.7-49.35-149.02-135.17-207.13-184.68-45.85-38.85-116.22-100.46-138.51-121-33.43-30.89-51.26-44.26-73.71-55.56-18.79-9.39-27.7-11.14-53.65-9.71-25.31,1.11-30.57,0-48.24-11.3-11.3-7.32-32.16-24.68-32.16-26.91,0-.8,8.6-24.2,19.26-51.74,10.51-27.54,21.02-54.93,23.24-60.82l3.98-10.67-6.53-27.54c-3.66-15.12-7.32-30.09-8.12-33.27-1.59-5.57-1.75-5.73-26.59-14.97-52.86-19.58-49.83-18.15-49.83-23.09,0-7.48,5.25-11.94,23.4-19.58,37.73-15.92,71.01-20.22,99.35-13.06h0ZM126.04,308.7c-3.65-1.63-8.23-3.73-10.79-4.79-8.12-3.34-12.5-7.7-12.18-9.93,3.98-26.27.19-23.51-21.78-48.35-20.38-22.93-36.3-46.65-42.83-63.52-5.57-14.33-7.96-30.41-4.94-32.32.96-.64,21.17,4.3,44.9,10.83l43.3,12.1,15.28-13.53c8.44-7.32,15.76-13.37,16.56-13.53.64,0,4.56,4.24,4.56,5.68,0,2.39-42.21,109.41-44.75,117.6-1.11,2.07-2.11,6,6.64,14.12,6.21,5.73,14.66,11.48,19.76,14.82l7.34,4.8c1.5.94-8.2,8.89-14.34,8.89l-6.74-2.85v-.03h.01ZM193.85,190.54c-4.78,4.14-21.65,46.01-21.65,53.65,0,2.39,1.27,5.57,2.87,7.01,3.98,3.66,46.01,23.4,49.67,23.4,6.37,0,10.99-7.01,19.9-29.77,4.78-12.42,8.76-23.56,8.76-24.68,0-4.94-6.05-9.55-25.95-20.06-26.11-13.85-28.02-14.49-33.59-9.55h0ZM223.49,198.21c8.92,4.78,17.49,9.68,18.92,10.16,1.98,1.69.95,3.33-.48,6.52s-1.27,4.62,1.11,7.16c3.66,3.98,2.07,7.64-3.5,8.28-5.89.64-8.76,7.8-4.78,12.1s3.34,6.37-2.39,7.96c-7.64,1.91-9.55,8.44-4.46,13.85,3.34,3.5,3.84,7.11,1.93,8.22-2.68,1.84-5.94,1.41-7.06,1.41-3.66,0-50.7-22.67-48-23.15,1.43-.32,11.25-2.41,12.68-5.11,2.39-4.46-.21-7.38-3.24-10.72-1.91-1.91-3.34-4.3-3.34-5.25,0-1.91,3.66-3.66,7.8-3.66,1.59,0,6.1.53,7.22-1.7,1.59-3.66-1.54-7.75-4.4-10.77-4.46-4.78-3.98-6.85,2.23-7.96,7.48-1.43,13.32-4.83,8.7-9.77-3.34-3.5-1.95-8.04,1.72-6.61,1.11.48,8.99,3.56,18.07,8.33l.85.42.42.28ZM200.37,201.21h0M770.82,669.75c-10.51,5.73-16.72,16.4-16.56,28.66.16,7.64.96,10.51,4.78,16.08,9.39,13.21,23.09,18.15,36.46,13.21,15.6-6.05,22.29-16.08,21.17-32.32-.64-10.99-3.18-15.44-13.06-23.4-8.28-6.85-22.45-7.64-32.8-2.23h0Z"/>
    </g>
  </g>
  <g id="Layer_21" data-name="Layer_2">
    <g>
      <g id="uuid-076b3331-a59f-46a9-9de2-29107302d4aa">
        <path class="st6" d="M425.67,421.16l206.02,186.1s22.84,32.41,48.48,8.94-6.33-46.37-6.33-46.37l-217.41-176.61-104.21-85.72s-21.57-17.43-30.59-5.45c-8.41,11.17-11.05,19.44,2.11,31.14s101.93,87.95,101.93,87.95v.02h0,.01Z"/>
      </g>
      <path class="st8" d="M90.13,33.27c33.86-13.41,72.33-19.17,107.87-8.85,26.88,7.87,46.76,22.86,58.64,48.61,4.84,10.57,7.97,22.04,8.83,33.52,0,0-1.25.35-1.25.35-6.32-12.04-12.37-23.33-20.45-33.94-12.88-16.64-29.08-31.21-49.06-38.68-24.73-9.04-52.04-9.26-77.95-5.44-8.81,1.34-17.63,3.12-26.18,5.64,0,0-.46-1.22-.46-1.22h0Z"/>
      <path class="st8" d="M37,156.71c19.9,3.1,39.19,8.44,58.47,13.87,6.58,1.79,13.89,4.21,20.53,5.47.3.14,1.17-.13,2.25-.62,5.41-2.56,10.32-6.12,15.46-9.51,4.15-2.78,8.28-5.63,12.56-8.37-1.54,2.02-3.19,3.94-4.86,5.84-5.14,5.75-10.42,11.03-16.68,15.75-1.63,1.18-3.52,2.46-5.45,3.27-1.65.75-3.63.83-5.42.58-7.02-.95-13.8-2.86-20.59-4.72-19.35-5.67-38.25-12.41-56.28-21.56h0Z"/>
      <path class="st9" d="M106.17,266.92c-4.36-5-8.21-10.47-13.22-14.73-6.72-6.42-12.67-13.54-18.46-20.72-7.4-9.38-14.43-19.14-20.12-29.7-1.75-3.59-3.87-7.23-4.3-11.27,1.65,3.59,4.36,6.55,6.76,9.66,0,0,7.47,9.17,7.47,9.17,10.01,12.17,19.84,24.58,29.42,37.08.19.24,2.03,2.58,2.24,2.81,4.59,5.17,7.54,11.44,10.21,17.71h0Z"/>
      <path class="st4" d="M683.3,694.59c15.28,13.28,30.71,26.46,46.9,38.57,8.03,5.85,16.28,11.83,25.22,16.05,8.95,3.87,18.85,5.82,28.56,6.04,14.73.4,29.14-5.21,40.1-15,11-9.65,20.69-22.17,21.72-37.28.92-9.91-.91-20.01-3.26-29.85,3.44,9.52,6,19.58,5.76,30-.19,16.03-9.81,29.95-21.28,40.42-11.5,10.87-27.27,17.07-43.12,16.69-9.22-.2-18.2-2.08-26.85-5.16-10.83-4.51-20.13-11.69-29.23-18.85-15.84-12.8-30.62-26.8-44.52-41.64h0Z"/>
    </g>
  </g>
</svg>